<?xml version="1.0" encoding="UTF-8"?>
<svg xmlns="http://www.w3.org/2000/svg" xmlns:xlink="http://www.w3.org/1999/xlink" width="256pt" height="256pt" viewBox="0 0 256 256" version="1.1">
<g id="surface1">
<path style=" stroke:none;fill-rule:nonzero;fill:rgb(89.411765%,30.196078%,14.901961%);fill-opacity:1;" d="M 241.78125 50.183594 L 219.804688 234.816406 L 121.027344 255.351562 L 22.519531 234.84375 L 0.566406 50.183594 Z M 241.78125 50.183594 "/>
<path style=" stroke:none;fill-rule:nonzero;fill:rgb(94.509804%,39.607843%,16.078431%);fill-opacity:1;" d="M 121.171875 239.652344 L 200.992188 223.058594 L 219.769531 65.28125 L 121.171875 65.28125 Z M 121.171875 239.652344 "/>
<path style=" stroke:none;fill-rule:nonzero;fill:rgb(92.156863%,92.156863%,92.156863%);fill-opacity:1;" d="M 78.453125 110.578125 L 121.171875 110.578125 L 121.171875 87.929688 L 45.453125 87.929688 L 46.175781 94.007812 L 53.597656 156.417969 L 121.171875 156.417969 L 121.171875 133.769531 L 81.214844 133.769531 Z M 85.261719 167.742188 L 54.945312 167.742188 L 59.175781 203.300781 L 121.035156 216.179688 L 121.171875 216.152344 L 121.171875 192.589844 L 121.039062 192.613281 L 87.410156 185.804688 Z M 85.261719 167.742188 "/>
<path style=" stroke:none;fill-rule:nonzero;fill:rgb(0%,0%,0%);fill-opacity:1;" d="M 23.007812 0 L 38.355469 0 L 38.355469 11.371094 L 52.394531 11.371094 L 52.394531 0 L 67.738281 0 L 67.738281 34.433594 L 52.394531 34.433594 L 52.394531 22.902344 L 38.355469 22.902344 L 38.355469 34.433594 L 23.011719 34.433594 L 23.011719 0 M 87.917969 11.417969 L 74.410156 11.417969 L 74.410156 0 L 116.785156 0 L 116.785156 11.417969 L 103.269531 11.417969 L 103.269531 34.433594 L 87.921875 34.433594 L 87.921875 11.417969 Z M 123.507812 0 L 139.511719 0 L 149.351562 12.097656 L 159.1875 0 L 175.195312 0 L 175.195312 34.433594 L 159.910156 34.433594 L 159.910156 17.367188 L 149.351562 29.609375 L 149.089844 29.609375 L 138.523438 17.367188 L 138.523438 34.433594 L 123.507812 34.433594 Z M 182.832031 0 L 198.179688 0 L 198.179688 23.054688 L 219.761719 23.054688 L 219.761719 34.433594 L 182.828125 34.433594 Z M 182.832031 0 "/>
<path style=" stroke:none;fill-rule:nonzero;fill:rgb(100%,100%,100%);fill-opacity:1;" d="M 121.070312 156.417969 L 158.253906 156.417969 L 154.746094 185.789062 L 121.070312 192.609375 L 121.070312 216.167969 L 182.972656 203.300781 L 183.429688 199.476562 L 190.527344 139.851562 L 191.261719 133.769531 L 121.070312 133.769531 Z M 121.070312 110.523438 L 121.070312 110.578125 L 194.007812 110.578125 L 194.613281 105.488281 L 195.992188 94.007812 L 196.714844 87.929688 L 121.070312 87.929688 Z M 121.070312 110.523438 "/>
</g>
</svg>
