<?xml version="1.0" encoding="UTF-8"?>
<svg xmlns="http://www.w3.org/2000/svg" xmlns:xlink="http://www.w3.org/1999/xlink" width="256pt" height="256pt" viewBox="0 0 256 256" version="1.1">
<defs>
<filter id="alpha" filterUnits="objectBoundingBox" x="0%" y="0%" width="100%" height="100%">
  <feColorMatrix type="matrix" in="SourceGraphic" values="0 0 0 0 1 0 0 0 0 1 0 0 0 0 1 0 0 0 1 0"/>
</filter>
<mask id="mask0">
  <g filter="url(#alpha)">
<rect x="0" y="0" width="256" height="256" style="fill:rgb(0%,0%,0%);fill-opacity:0.101961;stroke:none;"/>
  </g>
</mask>
<clipPath id="clip1">
  <rect width="256" height="256"/>
</clipPath>
<g id="surface6" clip-path="url(#clip1)">
<path style=" stroke:none;fill-rule:nonzero;fill:rgb(0%,0%,0%);fill-opacity:1;" d="M 142.324219 95.652344 L 142.324219 198.769531 C 142.292969 203.5 139.648438 207.746094 135.613281 209.546875 C 134.328125 210.136719 132.945312 210.441406 131.550781 210.441406 L 76.863281 210.441406 C 76.097656 208.335938 75.394531 206.230469 74.804688 204.0625 C 72.742188 196.746094 71.691406 189.136719 71.683594 181.488281 L 71.683594 107.898438 C 71.542969 101.296875 76.363281 95.816406 82.457031 95.65625 Z M 142.324219 95.652344 "/>
</g>
<mask id="mask1">
  <g filter="url(#alpha)">
<rect x="0" y="0" width="256" height="256" style="fill:rgb(0%,0%,0%);fill-opacity:0.2;stroke:none;"/>
  </g>
</mask>
<clipPath id="clip2">
  <rect width="256" height="256"/>
</clipPath>
<g id="surface9" clip-path="url(#clip2)">
<path style=" stroke:none;fill-rule:nonzero;fill:rgb(0%,0%,0%);fill-opacity:1;" d="M 136.4375 95.652344 L 136.4375 205.148438 C 136.4375 206.660156 136.15625 208.15625 135.613281 209.546875 C 133.949219 213.921875 130.027344 216.785156 125.664062 216.816406 L 79.632812 216.816406 C 78.632812 214.710938 77.691406 212.609375 76.867188 210.441406 C 76.074219 208.355469 75.386719 206.226562 74.804688 204.0625 C 72.746094 196.746094 71.695312 189.136719 71.6875 181.488281 L 71.6875 107.898438 C 71.542969 101.296875 76.363281 95.816406 82.457031 95.65625 Z M 136.4375 95.652344 "/>
</g>
<mask id="mask2">
  <g filter="url(#alpha)">
<rect x="0" y="0" width="256" height="256" style="fill:rgb(0%,0%,0%);fill-opacity:0.2;stroke:none;"/>
  </g>
</mask>
<clipPath id="clip3">
  <rect width="256" height="256"/>
</clipPath>
<g id="surface12" clip-path="url(#clip3)">
<path style=" stroke:none;fill-rule:nonzero;fill:rgb(0%,0%,0%);fill-opacity:1;" d="M 136.4375 95.652344 L 136.4375 192.394531 C 136.390625 198.816406 131.59375 204.015625 125.664062 204.0625 L 74.804688 204.0625 C 72.742188 196.746094 71.691406 189.136719 71.683594 181.488281 L 71.683594 107.898438 C 71.542969 101.296875 76.363281 95.816406 82.457031 95.65625 Z M 136.4375 95.652344 "/>
</g>
<mask id="mask3">
  <g filter="url(#alpha)">
<rect x="0" y="0" width="256" height="256" style="fill:rgb(0%,0%,0%);fill-opacity:0.2;stroke:none;"/>
  </g>
</mask>
<clipPath id="clip4">
  <rect width="256" height="256"/>
</clipPath>
<g id="surface15" clip-path="url(#clip4)">
<path style=" stroke:none;fill-rule:nonzero;fill:rgb(0%,0%,0%);fill-opacity:1;" d="M 130.550781 95.652344 L 130.550781 192.394531 C 130.503906 198.816406 125.707031 204.015625 119.777344 204.0625 L 74.804688 204.0625 C 72.742188 196.746094 71.691406 189.136719 71.683594 181.488281 L 71.683594 107.898438 C 71.542969 101.296875 76.363281 95.816406 82.457031 95.65625 Z M 130.550781 95.652344 "/>
</g>
<mask id="mask4">
  <g filter="url(#alpha)">
<rect x="0" y="0" width="256" height="256" style="fill:rgb(0%,0%,0%);fill-opacity:0.101961;stroke:none;"/>
  </g>
</mask>
<clipPath id="clip5">
  <rect width="256" height="256"/>
</clipPath>
<g id="surface18" clip-path="url(#clip5)">
<path style=" stroke:none;fill-rule:nonzero;fill:rgb(0%,0%,0%);fill-opacity:1;" d="M 142.324219 62.6875 L 142.324219 82.773438 C 141.320312 82.835938 140.378906 82.902344 139.378906 82.902344 C 138.378906 82.902344 137.4375 82.835938 136.4375 82.773438 C 134.449219 82.628906 132.476562 82.289062 130.550781 81.753906 C 118.628906 78.695312 108.78125 69.636719 104.058594 57.394531 C 103.246094 55.335938 102.617188 53.203125 102.175781 51.015625 L 131.550781 51.015625 C 137.488281 51.039062 142.300781 56.25 142.324219 62.6875 "/>
</g>
<mask id="mask5">
  <g filter="url(#alpha)">
<rect x="0" y="0" width="256" height="256" style="fill:rgb(0%,0%,0%);fill-opacity:0.2;stroke:none;"/>
  </g>
</mask>
<clipPath id="clip6">
  <rect width="256" height="256"/>
</clipPath>
<g id="surface21" clip-path="url(#clip6)">
<path style=" stroke:none;fill-rule:nonzero;fill:rgb(0%,0%,0%);fill-opacity:1;" d="M 130.550781 69.0625 L 130.550781 81.753906 C 118.628906 78.695312 108.78125 69.636719 104.058594 57.390625 L 119.777344 57.390625 C 125.71875 57.417969 130.527344 62.628906 130.550781 69.0625 "/>
</g>
<linearGradient id="linear0" gradientUnits="userSpaceOnUse" x1="0.17372" y1="-0.0651" x2="0.82628" y2="1.0651" gradientTransform="matrix(129.503906,0,0,140.296875,1.046875,57.390625)">
<stop offset="0" style="stop-color:rgb(35.294118%,38.431373%,76.470588%);stop-opacity:1;"/>
<stop offset="0.5" style="stop-color:rgb(30.196078%,33.333333%,74.117647%);stop-opacity:1;"/>
<stop offset="1" style="stop-color:rgb(22.352941%,25.098039%,67.058824%);stop-opacity:1;"/>
</linearGradient>
</defs>
<g id="surface1">
<path style=" stroke:none;fill-rule:nonzero;fill:rgb(31.372549%,34.901961%,78.823529%);fill-opacity:1;" d="M 177.597656 95.652344 L 242.980469 95.652344 C 249.15625 95.652344 254.164062 101.078125 254.164062 107.769531 L 254.164062 172.285156 C 254.164062 196.878906 235.761719 216.816406 213.058594 216.816406 L 212.863281 216.816406 C 190.164062 216.820312 171.757812 196.886719 171.753906 172.292969 L 171.753906 101.988281 C 171.753906 98.488281 174.371094 95.652344 177.597656 95.652344 "/>
<path style=" stroke:none;fill-rule:nonzero;fill:rgb(31.372549%,34.901961%,78.823529%);fill-opacity:1;" d="M 248.277344 54.203125 C 248.277344 70.054688 236.417969 82.902344 221.789062 82.902344 C 207.160156 82.902344 195.300781 70.054688 195.300781 54.203125 C 195.300781 38.355469 207.160156 25.507812 221.789062 25.507812 C 236.417969 25.507812 248.277344 38.355469 248.277344 54.203125 Z M 248.277344 54.203125 "/>
<path style=" stroke:none;fill-rule:nonzero;fill:rgb(48.235294%,51.372549%,92.156863%);fill-opacity:1;" d="M 177.640625 41.449219 C 177.640625 64.34375 160.511719 82.902344 139.378906 82.902344 C 118.246094 82.902344 101.117188 64.34375 101.117188 41.449219 C 101.117188 18.558594 118.246094 0 139.378906 0 C 160.511719 0 177.640625 18.558594 177.640625 41.449219 Z M 177.640625 41.449219 "/>
<path style=" stroke:none;fill-rule:nonzero;fill:rgb(48.235294%,51.372549%,92.156863%);fill-opacity:1;" d="M 190.398438 95.652344 L 82.476562 95.652344 C 76.371094 95.816406 71.542969 101.304688 71.683594 107.917969 L 71.683594 181.5 C 70.832031 221.179688 99.808594 254.105469 136.4375 255.078125 C 173.0625 254.105469 202.039062 221.179688 201.1875 181.5 L 201.1875 107.917969 C 201.328125 101.304688 196.5 95.816406 190.398438 95.652344 "/>
<use xlink:href="#surface6" mask="url(#mask0)"/>
<use xlink:href="#surface9" mask="url(#mask1)"/>
<use xlink:href="#surface12" mask="url(#mask2)"/>
<use xlink:href="#surface15" mask="url(#mask3)"/>
<use xlink:href="#surface18" mask="url(#mask4)"/>
<use xlink:href="#surface21" mask="url(#mask5)"/>
<path style=" stroke:none;fill-rule:nonzero;fill:url(#linear0);" d="M 11.839844 57.390625 L 119.757812 57.390625 C 125.71875 57.390625 130.550781 62.625 130.550781 69.082031 L 130.550781 185.996094 C 130.550781 192.453125 125.71875 197.6875 119.757812 197.6875 L 11.839844 197.6875 C 5.878906 197.6875 1.046875 192.453125 1.046875 185.996094 L 1.046875 69.082031 C 1.046875 62.625 5.878906 57.390625 11.839844 57.390625 "/>
<path style=" stroke:none;fill-rule:nonzero;fill:rgb(100%,100%,100%);fill-opacity:1;" d="M 94.195312 101.890625 L 72.621094 101.890625 L 72.621094 165.535156 L 58.875 165.535156 L 58.875 101.890625 L 37.402344 101.890625 L 37.402344 89.546875 L 94.195312 89.546875 Z M 94.195312 101.890625 "/>
</g>
</svg>
