<?xml version="1.0" encoding="UTF-8"?>
<svg xmlns="http://www.w3.org/2000/svg" xmlns:xlink="http://www.w3.org/1999/xlink" width="256pt" height="256pt" viewBox="0 0 256 256" version="1.1">
<g id="surface1">
<path style=" stroke:none;fill-rule:nonzero;fill:rgb(94.117647%,41.568627%,41.568627%);fill-opacity:1;" d="M 200.902344 135.3125 C 170.242188 135.3125 145.390625 162.238281 145.390625 195.453125 C 145.390625 228.667969 170.242188 255.59375 200.902344 255.59375 C 231.5625 255.59375 256.414062 228.667969 256.414062 195.453125 C 256.414062 162.238281 231.5625 135.3125 200.902344 135.3125 M 56.675781 135.316406 C 26.015625 135.316406 1.160156 162.238281 1.160156 195.453125 C 1.160156 228.667969 26.015625 255.59375 56.675781 255.59375 C 87.335938 255.59375 112.1875 228.667969 112.1875 195.453125 C 112.1875 162.238281 87.335938 135.316406 56.675781 135.316406 M 184.300781 60.136719 C 184.300781 93.355469 159.445312 120.28125 128.789062 120.28125 C 98.128906 120.28125 73.273438 93.355469 73.273438 60.136719 C 73.273438 26.925781 98.128906 0 128.789062 0 C 159.445312 0 184.296875 26.929688 184.296875 60.136719 "/>
</g>
</svg>
