<?xml version="1.0" encoding="UTF-8"?>
<svg xmlns="http://www.w3.org/2000/svg" xmlns:xlink="http://www.w3.org/1999/xlink" width="256pt" height="256pt" viewBox="0 0 256 256" version="1.1">
<g id="surface1">
<path style=" stroke:none;fill-rule:nonzero;fill:rgb(25.882353%,52.156863%,95.686275%);fill-opacity:1;" d="M 250.390625 130.394531 C 250.390625 119.90625 249.539062 112.253906 247.695312 104.316406 L 127.929688 104.316406 L 127.929688 151.65625 L 198.230469 151.65625 C 196.8125 163.417969 189.160156 181.136719 172.152344 193.039062 L 171.914062 194.625 L 209.78125 223.960938 L 212.40625 224.222656 C 236.5 201.96875 250.390625 169.230469 250.390625 130.394531 "/>
<path style=" stroke:none;fill-rule:nonzero;fill:rgb(20.392157%,65.882353%,32.54902%);fill-opacity:1;" d="M 127.929688 255.121094 C 162.371094 255.121094 191.285156 243.78125 212.40625 224.222656 L 172.152344 193.039062 C 161.378906 200.550781 146.921875 205.796875 127.929688 205.796875 C 94.199219 205.796875 65.570312 183.546875 55.363281 152.789062 L 53.867188 152.917969 L 14.492188 183.390625 L 13.976562 184.820312 C 34.953125 226.488281 78.039062 255.121094 127.929688 255.121094 "/>
<path style=" stroke:none;fill-rule:nonzero;fill:rgb(98.431373%,73.72549%,1.960784%);fill-opacity:1;" d="M 55.363281 152.789062 C 52.671875 144.851562 51.113281 136.347656 51.113281 127.558594 C 51.113281 118.773438 52.671875 110.269531 55.222656 102.332031 L 55.152344 100.640625 L 15.28125 69.679688 L 13.976562 70.300781 C 5.332031 87.589844 0.371094 107.007812 0.371094 127.558594 C 0.371094 148.113281 5.332031 167.527344 13.976562 184.820312 Z M 55.363281 152.789062 "/>
<path style=" stroke:none;fill-rule:nonzero;fill:rgb(92.156863%,26.27451%,20.784314%);fill-opacity:1;" d="M 127.929688 49.324219 C 151.882812 49.324219 168.042969 59.667969 177.253906 68.316406 L 213.253906 33.164062 C 191.144531 12.613281 162.371094 0 127.929688 0 C 78.039062 0 34.953125 28.628906 13.976562 70.300781 L 55.222656 102.332031 C 65.570312 71.574219 94.199219 49.324219 127.929688 49.324219 "/>
</g>
</svg>
